# xmcd
#
# Track frame offsets:
#	150
#	13567
#	31923
#	45077
#	62154
#	76261
#	94829
#	109743
#	125725
#	141536
#	156050
#	170162
#	185991
#	201222
#	216806
#	233616
#	250295
#	265740
#	284029
#	300214
#
# Disc length: 4232 seconds
#
# Revision: 0
# Processed by: cddbd v1.5.2PL0 Copyright (c) Steve Scherf et al.
# Submitted via: audiograbber 1.83.01
#
DISCID=1d108614
DTITLE=Various Artist - Pagodão do Cabral 2014
DYEAR=2013
DGENRE=Samba
TTITLE0=Alexandre pires part. Mumuzinho - Maluca Pirada
TTITLE1=Péricles part. Xande do Revelação - Êta Amor
TTITLE2=Nosso Sentimento - Perdeu Pra Cerveja
TTITLE3=Diogo Nogueira - Desejo Me Chama
TTITLE4=Grupo Tá Feito - Entre Quatro Paredes
TTITLE5=Grupo Muito Afim - Porque Foi Embora
TTITLE6=Pixote - Proibido É Mais Gostoso
TTITLE7=Sambavox - Vem Pro Seu Luar
TTITLE8=Thiago Soares - Que Nem Ioiô
TTITLE9=Grupo Bom Senso - Complicado Demais
TTITLE10=Sampa Crew part. Buchecha - A Noite É Nossa
TTITLE11=Ascensão - Dói Pensar
TTITLE12=Fernanda Venetillo part. Mumuzinho - Tanta Indecisão
TTITLE13=Etynia - Aquele Beijo
TTITLE14=Só Morrendo - Guardião do Amor
TTITLE15=Ferrugem - Casa Azul
TTITLE16=Grupo Pra Valer - Se Voltar Atrás
TTITLE17=É D+ - Beijando Duas Paixões
TTITLE18=Mumuzinho - Fala
TTITLE19=Só Pra Contrariar - Me Perdoa
EXTD=Ripped names by Renato Silva - Brazil - 2014
EXTT0=
EXTT1=
EXTT2=
EXTT3=
EXTT4=
EXTT5=
EXTT6=
EXTT7=
EXTT8=
EXTT9=
EXTT10=
EXTT11=
EXTT12=
EXTT13=
EXTT14=
EXTT15=
EXTT16=
EXTT17=
EXTT18=
EXTT19=
PLAYORDER=
